HIERARCHY
ROOT Hips
{
	OFFSET	0.00	0.00	0.00
	CHANNELS 6 Xposition Yposition Zposition Zrotation Xrotation Yrotation
	JOINT LeftUpLeg
	{
		OFFSET	 0.126116	-0.014019	-0.065224
		CHANNELS 3 Zrotation Xrotation Yrotation
		JOINT LeftLeg
		{
			OFFSET	 0.000000	 0.000000	 0.569914
			CHANNELS 3 Zrotation Xrotation Yrotation
			JOINT LeftFoot
			{
				OFFSET	 0.000000	 0.000000	 0.544423
				CHANNELS 3 Zrotation Xrotation Yrotation
				JOINT LeftToeBase
				{
					OFFSET	 0.000000	 0.000000	 0.207117
					CHANNELS 3 Zrotation Xrotation Yrotation
					End Site
					{
						OFFSET	 0.000000	 0.000000	 0.207117
					}
				}
			}
		}
	}
	JOINT RightUpLeg
	{
		OFFSET	-0.124023	-0.008373	-0.065224
		CHANNELS 3 Zrotation Xrotation Yrotation
		JOINT RightLeg
		{
			OFFSET	 0.000000	 0.000000	 0.570047
			CHANNELS 3 Zrotation Xrotation Yrotation
			JOINT RightFoot
			{
				OFFSET	 0.000000	 0.000000	 0.544354
				CHANNELS 3 Zrotation Xrotation Yrotation
				JOINT RightToeBase
				{
					OFFSET	 0.000000	 0.000000	 0.207540
					CHANNELS 3 Zrotation Xrotation Yrotation
					End Site
					{
						OFFSET	 0.000000	 0.000000	 0.207540
					}
				}
			}
		}
	}
	JOINT Spine
	{
		OFFSET	 0.000184	-0.007763	 0.117403
		CHANNELS 3 Zrotation Xrotation Yrotation
		JOINT Spine1
		{
			OFFSET	 0.000000	 0.000000	 0.137269
			CHANNELS 3 Zrotation Xrotation Yrotation
			JOINT Spine2
			{
				OFFSET	 0.000000	 0.000000	 0.156879
				CHANNELS 3 Zrotation Xrotation Yrotation
				JOINT LeftShoulder
				{
					OFFSET	 0.080501	-0.002496	 0.160144
					CHANNELS 3 Zrotation Xrotation Yrotation
					JOINT LeftArm
					{
						OFFSET	 0.000000	 0.000000	 0.164363
						CHANNELS 3 Zrotation Xrotation Yrotation
						JOINT LeftForeArm
						{
							OFFSET	 0.000000	 0.000000	 0.364576
							CHANNELS 3 Zrotation Xrotation Yrotation
							JOINT LeftHand
							{
								OFFSET	 0.000000	 0.000000	 0.360812
								CHANNELS 3 Zrotation Xrotation Yrotation
								JOINT LeftHandIndex1
								{
									OFFSET	 0.000000	 0.000000	 0.086006
									CHANNELS 3 Zrotation Xrotation Yrotation
									JOINT LeftHandIndex2
									{
										OFFSET	 0.000000	 0.000000	 0.047236
										CHANNELS 3 Zrotation Xrotation Yrotation
										JOINT LeftHandIndex3
										{
											OFFSET	-0.004284	-0.000551	 0.038166
											CHANNELS 3 Zrotation Xrotation Yrotation
											End Site
											{
												OFFSET	-0.004284	-0.000551	 0.038166
											}
										}
									}
								}
							}
						}
					}
				}
				JOINT Neck
				{
					OFFSET	 0.000000	 0.000000	 0.176489
					CHANNELS 3 Zrotation Xrotation Yrotation
					JOINT Head
					{
						OFFSET	 0.000000	-0.001747	 0.077940
						CHANNELS 3 Zrotation Xrotation Yrotation
						End Site
						{
							OFFSET	 0.000000	-0.001747	 0.077940
						}
					}
				}
				JOINT RightShoulder
				{
					OFFSET	-0.080363	 0.000306	 0.159706
					CHANNELS 3 Zrotation Xrotation Yrotation
					JOINT RightArm
					{
						OFFSET	 0.000000	 0.000000	 0.164196
						CHANNELS 3 Zrotation Xrotation Yrotation
						JOINT RightForeArm
						{
							OFFSET	 0.000000	 0.000000	 0.365611
							CHANNELS 3 Zrotation Xrotation Yrotation
							JOINT RightHand
							{
								OFFSET	 0.000000	 0.000000	 0.360648
								CHANNELS 3 Zrotation Xrotation Yrotation
								JOINT RightHandIndex1
								{
									OFFSET	 0.000000	 0.000000	 0.069977
									CHANNELS 3 Zrotation Xrotation Yrotation
									JOINT RightHandIndex2
									{
										OFFSET	 0.000000	 0.000000	 0.052305
										CHANNELS 3 Zrotation Xrotation Yrotation
										JOINT RightHandIndex3
										{
											OFFSET	 0.009002	-0.000782	 0.042196
											CHANNELS 3 Zrotation Xrotation Yrotation
											End Site
											{
												OFFSET	 0.009002	-0.000782	 0.042196
											}
										}
									}
								}
							}
						}
					}
				}
			}
		}
	}
}
MOTION
Frames:    6
Frame Time: 0.03333334
-0.880653	-7.984084	 0.751404	-16.058270	 8.041905	 1.725407	 4.533298	-22.114690	 174.172500	-1.675185	-40.145810	-0.211795	 0.119130	 84.676790	-0.607171	-2.385765	 28.467700	-0.000324	-2.469209	-23.000680	-178.758700	-0.121797	-41.005950	 0.008376	-0.265642	 85.594560	 0.519819	 2.407686	 17.417260	-0.223921	 7.719717	 7.494607	-0.822956	 13.350160	 4.611258	-2.512513	 16.239890	 2.705013	 0.696173	-115.675100	 89.397370	-153.548100	 56.052210	 59.841550	-78.159060	-3.646811	-4.372966	-20.878990	 4.027578	-26.754890	-5.974548	-3.812334	 37.924440	-2.927599	-2.450526	 36.184240	 0.754587	-1.378229	 35.397820	-2.634230	 0.456680	 2.631266	-0.631095	 4.747345	 6.413815	-0.954675	 94.719450	 86.906110	 171.577300	-53.479720	 70.182750	 71.748110	-3.210468	-12.984350	 25.858090	-19.534730	-27.484380	 10.800430	 6.437017	 35.671460	-0.771858	 2.830251	 35.756010	-7.813440	-2.350882	 35.473990	 5.254307
-0.879911	-7.983356	 0.750159	-16.083310	 8.045693	 1.803086	 4.498748	-22.420800	 174.104000	-1.741322	-40.695450	-0.289096	 0.052324	 84.854560	-0.617380	-2.385525	 28.522720	-0.001509	-2.445586	-23.280740	-178.769500	-0.083970	-41.436690	 0.057754	-0.476730	 85.745360	 0.788217	 2.407674	 17.750220	-0.217423	 7.642913	 7.454639	-0.894246	 13.228880	 4.343260	-2.513491	 16.105790	 2.369539	 0.737764	-115.521400	 89.388020	-153.675100	 55.774570	 59.143630	-77.870610	-3.651123	-4.184534	-21.338750	 3.321188	-26.838630	-5.984152	-3.812334	 37.924440	-2.927599	-2.450526	 36.184240	 0.754587	-1.378229	 35.397820	-2.634230	 0.443808	 2.505282	-0.590326	 4.710244	 6.318626	-1.011899	 94.722210	 86.892340	 171.551700	-53.315400	 69.676470	 71.854890	-3.230158	-12.962420	 26.188650	-19.205820	-27.570290	 10.810440	 6.437017	 35.671460	-0.771858	 2.830251	 35.756010	-7.813440	-2.350882	 35.473990	 5.254307
-0.878560	-7.981790	 0.747823	-16.143910	 8.039846	 1.833236	 4.528521	-23.036120	 174.053300	-1.803823	-41.515740	-0.327362	 0.264419	 85.100990	-0.857802	-2.385161	 28.603620	-0.003263	-2.420373	-23.734440	-178.724400	-0.057047	-42.136780	 0.111390	-0.768364	 85.949870	 1.135352	 2.407628	 18.049770	-0.211554	 7.546364	 7.483183	-0.942650	 13.048570	 4.024176	-2.499644	 15.884110	 1.955984	 0.785080	-114.902400	 89.359580	-154.234300	 55.227660	 58.227370	-77.476220	-3.595262	-3.997413	-22.045640	 2.547645	-27.002850	-6.000371	-3.812334	 37.924440	-2.927599	-2.450526	 36.184240	 0.754587	-1.378229	 35.397820	-2.634230	 0.421661	 2.268214	-0.568072	 4.634741	 6.250037	-1.046574	 94.745380	 86.879460	 171.492500	-52.878610	 68.922390	 71.825070	-3.290614	-13.027410	 26.822500	-18.789470	-27.742740	 10.831750	 6.437017	 35.671460	-0.771858	 2.830251	 35.756010	-7.813440	-2.350882	 35.473990	 5.254307
-0.876958	-7.979503	 0.744746	-16.238430	 8.089791	 1.851649	 4.615871	-23.726250	 174.017700	-1.888801	-42.539840	-0.350536	 0.503247	 85.394530	-1.100484	-2.384939	 28.652660	-0.004319	-2.400400	-24.405810	-178.656100	-0.060421	-43.067830	 0.148574	-1.105171	 86.189620	 1.501159	 2.407531	 18.394250	-0.204797	 7.429440	 7.610970	-0.987361	 12.822130	 3.713016	-2.477437	 15.603360	 1.549039	 0.826666	-114.048400	 89.317580	-155.002900	 54.391500	 57.491840	-77.075940	-3.172859	-4.116619	-22.953580	 2.518914	-27.237140	-6.017847	-3.812334	 37.924440	-2.927599	-2.450526	 36.184240	 0.754587	-1.378229	 35.397820	-2.634230	 0.392020	 1.973637	-0.549446	 4.531952	 6.187551	-0.993394	 94.784260	 86.859820	 171.395300	-52.214440	 68.068360	 71.734860	-3.316340	-13.175550	 27.675250	-18.369980	-28.003100	 10.846270	 6.437017	 35.671460	-0.771858	 2.830251	 35.756010	-7.813440	-2.350882	 35.473990	 5.254307
-0.874474	-7.975194	 0.739743	-16.385240	 8.225867	 1.842759	 4.747251	-24.863800	 173.994100	-2.025719	-44.130330	-0.388523	 0.833373	 85.840140	-1.436279	-2.384364	 28.779240	-0.007064	-2.360770	-25.663790	-178.552400	-0.117293	-44.580080	 0.175101	-1.612089	 86.550250	 2.013365	 2.407234	 19.053550	-0.191822	 7.231663	 7.898067	-1.038692	 12.477680	 3.302775	-2.432230	 15.214330	 1.021626	 0.876048	-112.928700	 89.256380	-156.004000	 53.104780	 56.631310	-76.722980	-3.120764	-4.228792	-24.541610	 2.249637	-27.622290	-6.045977	-3.812334	 37.924440	-2.927599	-2.450526	 36.184240	 0.754587	-1.378229	 35.397820	-2.634230	 0.377125	 1.540376	-0.550563	 4.411903	 6.060615	-0.819596	 94.840870	 86.808860	 171.217400	-51.214030	 66.930040	 71.875310	-3.187609	-13.443280	 28.964140	-17.839270	-28.401200	 10.895790	 6.437017	 35.671460	-0.771858	 2.830251	 35.756010	-7.813440	-2.350882	 35.473990	 5.254307
-0.872491	-7.971332	 0.735840	-16.503860	 8.404138	 1.770197	 4.756303	-25.863130	 174.033000	-2.177386	-45.374950	-0.503155	 0.794603	 86.187520	-1.479711	-2.383791	 28.902110	-0.009743	-2.269611	-26.729380	-178.483800	-0.139214	-45.794690	 0.247308	-1.676267	 86.830770	 2.124114	 2.406845	 19.629560	-0.180443	 7.082519	 8.187520	-1.037694	 12.226170	 3.007103	-2.377503	 14.945300	 0.637702	 0.910564	-112.391700	 89.212420	-156.434500	 52.138650	 56.103230	-76.507480	-3.404532	-4.236477	-25.892190	 1.851194	-27.925430	-6.067652	-3.812334	 37.924440	-2.927599	-2.450526	 36.184240	 0.754587	-1.378229	 35.397820	-2.634230	 0.389386	 1.167354	-0.568595	 4.344288	 5.945349	-0.651489	 94.874740	 86.751950	 171.066900	-50.425750	 66.202360	 72.094840	-2.946249	-13.646830	 29.906680	-17.487950	-28.712030	 10.933210	 6.437017	 35.671460	-0.771858	 2.830251	 35.756010	-7.813440	-2.350882	 35.473990	 5.254307
